# xmcd
# 
# Track frame offsets:
#     150
#     24108
#     42821
#     61017
#     82995
# 
# Disc length: 1395
# 
# Revision: 0
# Processed by: cddbd v1.5.2PL0 Copyright (c) Steve Scherf et al.
# Submitted via: BonkEnc v1.0.8
# 
DISCID=28057105
DTITLE=平井堅 - アイシテル
DYEAR=0
DGENRE=JPop
TTITLE0=アイシテル
TTITLE1=air cameraman
TTITLE2=Unchained Melody
TTITLE3=僕は君に恋をする rei harakami remix
TTITLE4=アイシテル-less vocal-
EXTD=
EXTT0=
EXTT1=
EXTT2=
EXTT3=
EXTT4=
PLAYORDER=
